<?xml version="1.0" standalone="no"?>
<!DOCTYPE svg PUBLIC "-//W3C//DTD SVG 20010904//EN"
 "http://www.w3.org/TR/2001/REC-SVG-20010904/DTD/svg10.dtd">
<svg version="1.0" xmlns="http://www.w3.org/2000/svg"
 width="1024.000000pt" height="1024.000000pt" viewBox="0 0 1024.000000 1024.000000"
 preserveAspectRatio="xMidYMid meet">
<metadata>
Created by potrace 1.11, written by Peter Selinger 2001-2013
</metadata>
<g transform="translate(0.000000,1024.000000) scale(0.100000,-0.100000)"
fill="#000000" stroke="none">
<path d="M2610 9469 c-269 -18 -503 -165 -649 -408 -38 -62 -86 -203 -97 -282
-4 -30 -8 -1843 -8 -4030 l-1 -3976 30 16 c28 15 930 540 965 562 8 5 67 39
130 75 63 37 169 98 235 137 66 38 156 90 200 115 44 25 91 53 105 62 14 9 48
30 75 45 28 15 379 219 780 453 402 234 737 426 745 426 8 0 236 -129 505
-286 270 -157 506 -295 525 -306 19 -10 114 -66 210 -122 147 -87 387 -226
517 -301 17 -10 50 -29 72 -43 22 -15 44 -26 48 -26 3 0 14 -6 22 -14 9 -7 41
-27 71 -43 30 -17 107 -61 170 -98 63 -37 135 -79 160 -92 25 -14 65 -38 90
-53 25 -15 214 -125 420 -245 206 -119 388 -226 403 -237 16 -11 34 -18 40
-15 9 3 12 931 11 3978 0 2186 -4 3994 -8 4019 -11 61 -10 57 -29 121 -72 242
-283 457 -522 532 -126 40 -90 39 -2644 41 -1362 0 -2519 -2 -2571 -5z"/>
</g>
</svg>
